# xmcd
#
# Track frame offsets:
#	150
#	19777
#	39472
#	56330
#	73754
#	89978
#	110343
#	129970
#	149665
#	166525
#	183949
#	200172
#
# Disc length: 2940 seconds
#
# Revision: 1
# Processed by: cddbd v1.5.2PL0 Copyright (c) Steve Scherf et al.
# Submitted via: audiograbber 1.83.01
#
DISCID=aa0b7a0c
DTITLE=Various Artist - CB 2003
DYEAR=1900
DGENRE=Karaoke
TTITLE0=George Strait - Carrying Your Love With Me (Vocal)
TTITLE1=Toby Keith - We Were In Love (Vocal)
TTITLE2=Lee Ann Womack - The Fool (Vocal)
TTITLE3=Collin Raye - What The Heart Wants (Vocal)
TTITLE4=Neal McCoy - The Shake (Vocal)
TTITLE5=John Michael Montgomery - How Was I To Know (Vocal)
TTITLE6=George Strait - Carrying Your Love With Me
TTITLE7=Toby Keith - We Were In Love
TTITLE8=Lee Ann Womack - The Fool
TTITLE9=Collin Raye - What The Heart Wants
TTITLE10=Neal McCoy - The Shake
TTITLE11=John Michael Montgomery - How Was I To Know
EXTD=Chart Busters 6+6 Series
EXTT0=
EXTT1=
EXTT2=
EXTT3=
EXTT4=
EXTT5=
EXTT6=
EXTT7=
EXTT8=
EXTT9=
EXTT10=
EXTT11=
PLAYORDER=
